<mxfile host="app.diagrams.net">
  <diagram id="SmartClockSimple" name="Smart Clock">
    <mxGraphModel dx="1040" dy="569" grid="1" gridSize="10" guides="1" tooltips="1" connect="1" arrows="1" fold="1" page="1" pageScale="1" pageWidth="1169" pageHeight="827" math="0" shadow="0">
      <root>
        <mxCell id="0"/>
        <mxCell id="1" parent="0"/>
        <mxCell id="2" value="LCD Display" style="rounded=1;whiteSpace=wrap;html=1;fillColor=#fff2cc" vertex="1" parent="1">
          <mxGeometry x="300" y="60" width="120" height="40" as="geometry"/>
        </mxCell>
        <mxCell id="3" value="Main Controller" style="rounded=1;whiteSpace=wrap;html=1;fillColor=#c9daf8" vertex="1" parent="1">
          <mxGeometry x="300" y="160" width="180" height="60" as="geometry"/>
        </mxCell>
        <mxCell id="4" value="Alarm System" style="rounded=1;whiteSpace=wrap;html=1;fillColor=#d9ead3" vertex="1" parent="1">
          <mxGeometry x="120" y="260" width="100" height="40" as="geometry"/>
        </mxCell>
        <mxCell id="5" value="Timer System" style="rounded=1;whiteSpace=wrap;html=1;fillColor=#d9ead3" vertex="1" parent="1">
          <mxGeometry x="250" y="260" width="100" height="40" as="geometry"/>
        </mxCell>
        <mxCell id="6" value="Button Control" style="rounded=1;whiteSpace=wrap;html=1;fillColor=#d9ead3" vertex="1" parent="1">
          <mxGeometry x="380" y="260" width="100" height="40" as="geometry"/>
        </mxCell>
        <mxCell id="7" value="WiFi Connectivity" style="rounded=1;whiteSpace=wrap;html=1;fillColor=#ffe599" vertex="1" parent="1">
          <mxGeometry x="500" y="160" width="130" height="40" as="geometry"/>
        </mxCell>
        <mxCell id="8" value="Web Interface" style="rounded=1;whiteSpace=wrap;html=1;fillColor=#b4a7d6" vertex="1" parent="1">
          <mxGeometry x="660" y="100" width="120" height="40" as="geometry"/>
        </mxCell>
        <mxCell id="9" value="Weather System" style="rounded=1;whiteSpace=wrap;html=1;fillColor=#a2c4c9" vertex="1" parent="1">
          <mxGeometry x="800" y="160" width="120" height="40" as="geometry"/>
        </mxCell>
        <mxCell id="10" value="Storage&#10;(EEPROM/Preferences)" style="rounded=1;whiteSpace=wrap;html=1;fillColor=#ead1dc" vertex="1" parent="1">
          <mxGeometry x="950" y="220" width="130" height="40" as="geometry"/>
        </mxCell>
        <!-- Lines -->
        <mxCell id="11" style="edgeStyle=orthogonalEdgeStyle;endArrow=block;html=1;" edge="1" parent="1" source="2" target="3">
          <mxGeometry relative="1" as="geometry"/>
        </mxCell>
        <mxCell id="12" style="edgeStyle=orthogonalEdgeStyle;endArrow=block;html=1;" edge="1" parent="1" source="3" target="4">
          <mxGeometry relative="1" as="geometry"/>
        </mxCell>
        <mxCell id="13" style="edgeStyle=orthogonalEdgeStyle;endArrow=block;html=1;" edge="1" parent="1" source="3" target="5">
          <mxGeometry relative="1" as="geometry"/>
        </mxCell>
        <mxCell id="14" style="edgeStyle=orthogonalEdgeStyle;endArrow=block;html=1;" edge="1" parent="1" source="3" target="6">
          <mxGeometry relative="1" as="geometry"/>
        </mxCell>
        <mxCell id="15" style="edgeStyle=orthogonalEdgeStyle;endArrow=block;html=1;" edge="1" parent="1" source="3" target="7">
          <mxGeometry relative="1" as="geometry"/>
        </mxCell>
        <mxCell id="16" style="edgeStyle=orthogonalEdgeStyle;endArrow=block;html=1;" edge="1" parent="1" source="7" target="8">
          <mxGeometry relative="1" as="geometry"/>
        </mxCell>
        <mxCell id="17" style="edgeStyle=orthogonalEdgeStyle;endArrow=block;html=1;" edge="1" parent="1" source="8" target="9">
          <mxGeometry relative="1" as="geometry"/>
        </mxCell>
        <mxCell id="18" style="edgeStyle=orthogonalEdgeStyle;endArrow=block;html=1;" edge="1" parent="1" source="9" target="10">
          <mxGeometry relative="1" as="geometry"/>
        </mxCell>
        <mxCell id="19" style="edgeStyle=orthogonalEdgeStyle;endArrow=block;html=1;" edge="1" parent="1" source="3" target="10">
          <mxGeometry relative="1" as="geometry"/>
        </mxCell>
      </root>
    </mxGraphModel>
  </diagram>
</mxfile>
